# xmcd
#
# Track frame offsets: 
#        150
#        20151
#        38954
#        59465
#        82752
#        107894
#        128426
#        149787
#        175498
#        197987
#        223207
#        243277
#        265404
#
# Disc length: 3827 seconds
#
# Revision: 1
# Processed by: cddbd v1.5.2PL0 Copyright (c) Steve Scherf et al.
# Submitted via: ExactAudioCopyFreeDBPlugin 1.0
#
DISCID=c90ef10d
DTITLE=江智民 - DTSES男烧典范
DYEAR=2009
DGENRE=DTSES
TTITLE0=错过的情人
TTITLE1=离别的秋天
TTITLE2=女人花
TTITLE3=想起
TTITLE4=如果爱情可以轮回
TTITLE5=红红好姑娘
TTITLE6=心碎
TTITLE7=为我的女人唱首歌
TTITLE8=狮子山下
TTITLE9=爱到底怎么了
TTITLE10=梦中的小屋
TTITLE11=当爱已成往事
TTITLE12=风中的承诺
EXTD=
EXTT0=
EXTT1=
EXTT2=
EXTT3=
EXTT4=
EXTT5=
EXTT6=
EXTT7=
EXTT8=
EXTT9=
EXTT10=
EXTT11=
EXTT12=
PLAYORDER=
